<svg width="25" height="21" viewBox="0 0 25 21" fill="none" xmlns="http://www.w3.org/2000/svg">
<path d="M25 9.5C25 14.7467 20.0751 19.5 14 19.5C3.5 23.5 0 16.7467 0 11.5C0 6.25329 7.92487 0 14 0C20.0751 0 25 4.25329 25 9.5Z" fill="#471D12"/>
<path d="M17.5673 6.31496C18.6304 6.24828 20.5175 6.2206 20.8471 7.5328C20.9138 7.79826 20.8836 9.2891 20.754 9.50046C20.3326 10.1823 6.57654 15.1418 5.75878 15.1242C-0.158044 14.9958 11.0805 6.72384 17.5673 6.3137V6.31496Z" fill="#874C2B"/>
<path d="M14.3807 2.00368C19.052 1.87032 22.1218 5.40683 21.5041 5.75281C15.6917 3.66059 5.5514 8.59988 2.10296 13.7191C1.02351 7.30907 8.6589 2.16723 14.3807 2.00368Z" fill="#6E3D2C"/>
<path d="M20.1917 11.189L20.2848 14.8437C15.9884 18.3828 7.27102 21.0197 3.04004 16.5308C9.17074 16.4881 14.6485 13.4183 20.1917 11.189Z" fill="#6E3D2C"/>
</svg>
