<svg width="178" height="24" viewBox="0 0 178 24" fill="none" xmlns="http://www.w3.org/2000/svg">
<path d="M30.9226 0.0273105C35.0328 -0.284697 38.295 2.10695 40.108 5.651C45.1542 1.32693 53.1745 -1.37798 58.8523 3.21407C63.7463 -1.4736 70.4922 -1.08107 74.035 4.90117C79.3945 1.21747 86.27 -1.0622 92.0296 3.21407C96.9009 -1.49247 104.165 -1.04207 107.4 5.08863C111.823 -0.370246 119.486 -2.30646 123.895 4.15135C124.738 4.42687 131.692 -2.33539 140.577 3.21407C145.757 -2.07497 153.592 -0.615576 156.135 6.40083C160.773 0.394675 175.682 -3.60859 177.784 6.68138C180.197 18.4949 161.757 25.2295 154.448 17.0846C150.352 23.9538 141.368 26.4951 137.015 18.5842C132.149 21.2426 125.847 22.5045 120.895 19.3341C116.262 24.4834 108.66 24.9426 104.963 18.5842C100.393 24.2104 92.2787 25.6107 88.4679 18.5842C83.3814 21.7559 76.3575 22.4365 71.2232 18.9591C66.616 24.8168 58.5793 25.2081 54.9157 18.2093C50.1098 21.4955 41.8907 22.6718 37.671 18.0219C32.8311 24.5036 23.6294 25.9101 20.2388 17.4595C15.633 21.5609 3.36022 24.1035 0.650283 16.804C-3.79835 4.81437 15.7739 -4.29425 23.0494 4.90117C24.8359 2.59131 27.8969 0.257542 30.9226 0.0273105Z" fill="#471D12"/>
<path d="M17.4266 7.14943C18.4897 7.08276 20.3769 7.05508 20.7065 8.36727C20.7732 8.63273 20.743 10.1236 20.6134 10.3349C20.1919 11.0168 6.43592 15.9762 5.61816 15.9586C-0.298669 15.8303 10.9399 7.55831 17.4266 7.14818V7.14943Z" fill="#874C2B"/>
<path d="M14.2401 2.83766C18.9114 2.7043 21.9812 6.24081 21.3634 6.58679C15.551 4.49458 5.41077 9.43386 1.96233 14.5531C0.882886 8.14305 8.51827 3.00121 14.2401 2.83766Z" fill="#6E3D2C"/>
<path d="M20.051 12.0234L20.1441 15.6782C15.8477 19.2172 7.13039 21.8542 2.89941 17.3653C9.03012 17.3225 14.5079 14.2528 20.051 12.0234Z" fill="#6E3D2C"/>
<path d="M167.382 2.08957C170.142 1.80775 172.94 2.59784 174.599 4.99451C168.178 4.38811 161.412 10.1275 156.135 13.5231C155.906 13.3973 157.075 11.3102 156.415 8.36872C158.889 5.71917 163.825 2.4519 167.381 2.08957H167.382Z" fill="#6E3D2C"/>
<path d="M171.694 6.39937C172.274 6.35282 173.689 6.41321 174.131 6.77429C177.71 9.70187 157.019 19.2898 157.729 14.5531C157.907 13.3604 168.648 6.64344 171.694 6.39937Z" fill="#874C2B"/>
<path d="M176.192 8.83643C176.025 17.4821 163.435 21.4048 156.791 17.1776C158.332 16.8279 160.029 17.2795 161.571 17.0845C164.74 16.6819 174.251 11.9578 176.191 8.83643H176.192Z" fill="#6E3D2C"/>
<path d="M98.9651 1.90185C100.326 1.82888 102.465 2.40257 102.432 2.74478C97.1157 3.97016 90.7334 16.107 93.8095 20.7393C85.696 17.9501 90.3497 2.36231 98.9639 1.90059L98.9651 1.90185Z" fill="#6E3D2C"/>
<path d="M102.715 4.52485C105.51 4.20781 98.1115 19.5918 95.4041 19.5201C97.1629 15.4112 94.6693 18.7992 94.4668 18.7703C92.9646 18.5551 96.1388 10.1574 98.4965 7.05489C101.759 2.76226 100.952 5.82321 101.214 6.02451C101.298 6.08867 102.555 4.54247 102.714 4.52485H102.715Z" fill="#874C2B"/>
<path d="M104.588 3.77539C109.953 10.4886 103.758 21.4202 95.5896 21.7699C95.0524 21.58 97.405 20.8415 99.2444 18.6775C101.218 16.3563 106.061 6.97725 104.586 3.77539H104.588Z" fill="#6E3D2C"/>
<path d="M147.138 1.90209C148.365 1.82032 149.728 2.14616 150.792 2.74502C145.403 4.17925 139.418 16.2331 142.544 20.927C134.013 18.2976 138.971 2.44685 147.136 1.90083L147.138 1.90209Z" fill="#6E3D2C"/>
<path d="M150.7 4.90011C151.01 4.87998 151.327 4.91395 151.637 4.90011C152.568 5.55935 147.688 17.0508 145.451 18.7706C141.997 21.4277 147.486 15.0089 142.827 18.5832C141.905 17.866 145.175 8.96879 147.419 6.49286C149.096 4.64346 148.578 5.98207 149.012 6.02485C149.112 6.03491 149.899 4.95295 150.699 4.90011H150.7Z" fill="#874C2B"/>
<path d="M152.949 3.77539C157.999 10.4722 152.208 21.702 143.951 21.7699V21.395C148.828 20.1747 153.797 8.4228 152.949 3.77539Z" fill="#6E3D2C"/>
<path d="M83.22 2.65043C87.5818 2.23023 91.5876 4.60426 90.4364 5.55538C89.7822 6.09636 80.7516 6.51531 74.7845 11.6471C74.7794 10.0254 75.1116 8.42887 74.5039 6.86757C76.7093 5.01439 80.3578 2.92596 83.22 2.65043Z" fill="#6E3D2C"/>
<path d="M88.6552 7.14939C88.966 7.16574 89.0893 7.11541 89.3107 7.42994L87.7179 11.6471C85.2483 12.6913 77.9752 16.4329 75.722 15.9586C75.1697 15.8428 74.0827 14.6351 74.3167 13.8035C74.6073 12.768 84.9816 6.95312 88.6565 7.14939H88.6552Z" fill="#874C2B"/>
<path d="M87.5311 13.1479L87.9991 16.9902C83.8638 19.9681 76.8876 20.8827 72.8164 17.5525C78.0186 17.4544 83.0347 15.7371 87.5311 13.1479Z" fill="#6E3D2C"/>
<path d="M115.273 2.08928C115.714 2.03267 117.698 2.02638 118.085 2.08928C121.704 2.68185 118.476 3.10205 116.772 4.33876C113.735 6.5442 107.161 16.848 110.493 20.5531C110.235 21.0475 108.284 19.6234 107.963 19.3353C104.266 16.0177 109.314 15.5522 108.244 7.61988C109.301 5.1452 112.671 2.42645 115.273 2.09054V2.08928Z" fill="#6E3D2C"/>
<path d="M120.147 4.52494C122.349 4.69101 116.908 15.0414 115.18 17.1776C113.866 18.8043 110.63 21.5621 113.118 17.5525C109.838 20.6273 110.6 17.1764 111.619 14.1783C112.536 11.481 117.329 4.60546 118.085 4.71239C118.669 4.79417 118.035 6.26237 118.46 6.21204C118.605 6.19443 120.028 4.51613 120.147 4.52494Z" fill="#874C2B"/>
<path d="M122.209 4.8999C126.043 10.3663 120.606 19.9367 114.711 21.3948C109.93 22.5774 113.403 21.1683 114.523 20.2701C117.309 18.0369 122.337 8.80881 122.209 4.8999Z" fill="#6E3D2C"/>
<path d="M65.7871 1.90165C66.0878 1.88781 69.145 2.13817 68.8795 2.74457C63.9704 4.08822 57.6384 16.0603 60.2565 20.5517C60.1181 21.6412 57.0044 18.7413 56.5074 16.4276C55.3223 10.8983 59.508 2.19604 65.7859 1.90039L65.7871 1.90165Z" fill="#6E3D2C"/>
<path d="M67.8487 4.5249C67.2688 7.8576 68.6703 4.40916 70.0039 4.618C70.4719 8.56088 64.1562 20.1354 62.6 19.5202C62.0502 19.3025 62.5094 18.062 62.225 17.833C62.02 17.6682 60.9934 18.7816 60.9129 18.7703C59.5717 18.5866 63.9059 6.73412 67.8487 4.5249Z" fill="#874C2B"/>
<path d="M71.4104 3.77519C74.762 8.54463 72.6308 15.795 68.4111 19.3328C66.451 20.9759 62.7245 22.312 62.6943 21.4879C67.4223 19.358 72.1829 8.82644 71.4104 3.77393V3.77519Z" fill="#6E3D2C"/>
<path d="M30.5479 2.08928C30.982 2.03267 32.9962 2.02638 33.3598 2.08928C36.8485 2.69569 32.9974 2.77998 30.0799 6.11897C27.6103 8.94591 23.0245 17.5727 26.1433 20.9268C17.5543 17.8256 22.9981 3.06305 30.5479 2.08803V2.08928Z" fill="#6E3D2C"/>
<path d="M35.2344 4.52497C37.8588 4.71117 30.6511 19.49 27.7361 19.5202C29.0722 16.0818 28.7074 17.6645 26.4239 18.7704C26.005 14.3658 29.8661 7.7155 33.1724 4.71242C33.4403 7.86899 34.2581 4.45577 35.2344 4.52497Z" fill="#874C2B"/>
<path d="M37.1082 3.9624C41.7393 10.8442 35.9608 21.2134 27.9229 21.7695C32.5526 19.4143 38.2631 8.98724 37.1082 3.9624Z" fill="#6E3D2C"/>
<path d="M49.854 2.65054C51.9776 2.40899 55.0952 2.72226 56.7899 4.15019C59.452 6.39338 54.6687 4.80063 48.1669 7.71186C44.9222 9.16496 42.1444 11.5214 39.7313 14.0854C39.4432 13.9747 41.002 11.183 40.1994 7.99368C42.3281 5.63097 46.7213 3.00784 49.8527 2.6518L49.854 2.65054Z" fill="#6E3D2C"/>
<path d="M55.4783 6.96179C56.7503 7.04483 55.5387 8.33564 54.7285 11.2733C52.9068 11.92 42.3413 18.3073 41.5135 15.303C40.6894 12.3112 52.581 6.77182 55.4783 6.96179Z" fill="#874C2B"/>
<path d="M54.166 13.1479L54.6341 16.6153C50.7692 19.6523 44.4032 20.6739 40.2012 17.9275C45.2059 17.5928 49.8067 15.4767 54.166 13.1479Z" fill="#6E3D2C"/>
<path d="M136.266 7.33698C136.543 7.31937 137.548 7.2703 137.672 7.43008L136.266 11.8347C134.097 12.7493 126.526 16.4506 124.833 16.3336C123.092 16.2141 124.663 12.7896 125.395 12.0221C126.809 10.5401 134.15 7.47034 136.266 7.33572V7.33698Z" fill="#874C2B"/>
<path d="M133.267 2.6505C136.012 2.66434 140.766 4.94778 138.329 6.02471C137.679 6.31156 131.88 5.84606 125.114 10.6168L124.833 5.83725C127.21 4.2055 130.312 2.6354 133.269 2.6505H133.267Z" fill="#6E3D2C"/>
<path d="M135.892 13.5227L136.547 16.9901C136.474 17.2719 133.701 18.6268 133.267 18.7703C127.98 20.5215 120.592 18.8697 123.52 17.6455C124.125 17.3926 131.122 16.6818 135.89 13.5215L135.892 13.5227Z" fill="#6E3D2C"/>
</svg>
