<svg width="33" height="33" viewBox="0 0 33 33" fill="none" xmlns="http://www.w3.org/2000/svg">
<path d="M24.2443 6.62604C28.0043 10.2854 27.9758 17.1299 23.7386 21.4835C19.2819 31.7979 12.0012 29.596 8.24126 25.9367C4.48131 22.2774 5.52722 12.2368 9.76433 7.88318C14.0015 3.52955 20.4844 2.96671 24.2443 6.62604Z" fill="black"/>
<path d="M16.7813 6.04485C17.2154 5.98824 19.2296 5.98195 19.5932 6.04485C23.0819 6.65125 19.2308 6.73555 16.3133 10.0745C13.8437 12.9015 9.2579 21.5282 12.3767 24.8823C3.7877 21.7811 9.23148 7.01862 16.7813 6.04359V6.04485Z" fill="#EAEAEA"/>
<path d="M21.4678 8.48053C24.0922 8.66673 16.8845 23.4456 13.9695 23.4758C15.3056 20.0374 14.9408 21.6201 12.6573 22.726C12.2384 18.3214 16.0995 11.6711 19.4058 8.66799C19.6737 11.8246 20.4915 8.41134 21.4678 8.48053Z" fill="#EAEAEA"/>
<path d="M23.3426 7.91846C27.9736 14.8002 22.1952 25.1695 14.1572 25.7256C18.787 23.3704 24.4975 12.9433 23.3426 7.91846Z" fill="#EAEAEA"/>
</svg>
